#!OML:ASF F:\VICON\USERDATA\INSTALL\rory3\rory3.ASF
:FULLY-SPECIFIED
:DEGREES
63
root 0.7857236679617197 17.856258707569424 26.203595509064773 -3.6994788761487687 -0.700151210132011 2.4154309550013884
lfemur 1.0332598877206571 -3.3047120518249713 -27.859682310676412
ltibia 22.91333409080684
lfoot -19.157487909379817 2.131135214866733
ltoes 1.5434155478394525
rfemur -32.78727856499615 -2.431129303964014 19.819698074786622
rtibia 59.26030189169958
rfoot -9.187476108713085 -11.200764359421783
rtoes 1.457538273500174
lowerback 10.858391830858857 -0.45097391446323654 -3.2752909681404594
upperback 0.6111239487350864 -0.9369943512603499 0.8677334469081565
thorax -5.359468651856671 -0.36631229323083037 2.9901075178510306
lowerneck -16.00403516924871 -2.498870791905796 -2.490500386068091
upperneck 19.47232892969079 -3.0746413209574595 1.1370290543660464
head 8.76585944205154 -1.5016706746641542 0.39755412026548825
lclavicle -1.0783646527870097e-15 -9.009513862981638e-16
lhumerus -26.28882384753105 -1.8993333728696862 80.49889341871823
lradius 23.15683934484641
lwrist 5.575016844728735
lhand -29.469192030308697 21.933516042590654
lfingers 7.125020000000057
lthumb -2.804464193129271 51.910040264462936
rclavicle -1.0783646527870097e-15 -9.009513862981638e-16
rhumerus -32.263789576554586 -21.752044612030417 -77.51442510150926
rradius 24.73017701870961
rwrist 3.5641840454199887
rhand -17.10066319744715 30.18513116613746
rfingers 7.125020000000057
rthumb 9.138619053709855 -6.943767927735692
64
root 0.7787069330913247 17.82135725804134 26.83016765462332 -2.8452697828304045 -0.07841685865354919 2.9398283628294215
lfemur 4.827423637962102 -2.8303316133879806 -28.383796432456855
ltibia 18.393467231165918
lfoot -19.8563442817765 1.8536064386489972
ltoes 0.6066363453353958
rfemur -33.36142069334872 -0.23406399650241871 18.45198806170105
rtibia 42.92422509167029
rfoot -8.73654986385461 -14.351613364990822
rtoes -0.7758062958078309
lowerback 10.423117483960876 -0.7562140864644106 -4.034390382408381
upperback 0.5509493485680779 -1.4220865210640539 0.9003878716978793
thorax -5.151220648818503 -0.5890856784062845 3.518432329369525
lowerneck -16.13310359107496 -2.5533530468896752 -2.5965515548480176
upperneck 19.066834464431736 -3.1489772189119325 1.2787548420286203
head 8.65593007627358 -1.5274410362249657 0.45630584762553206
lclavicle -1.1255873924450879e-15 -9.375160919995257e-16
lhumerus -24.171167138923575 -3.689055120275552 80.12931412740502
lradius 24.677947912836515
lwrist 6.402040685183755
lhand -29.503367747723352 22.564255484616066
lfingers 7.125020000000056
lthumb -2.837517930828565 52.53722461304922
rclavicle -1.1255873924450879e-15 -9.375160919995257e-16
rhumerus -33.203590212826924 -21.789824969524645 -77.25154732576524
rradius 24.469830737373485
rwrist 3.4434238813806433
rhand -17.077424141246624 30.17615662406775
rfingers 7.125020000000056
rthumb 9.161007086500783 -6.720350109158895
65
root 0.7741440641225703 17.77373622625803 27.905070366506987 -1.956575089849295 0.5662590761986726 3.458832955626996
lfemur 9.104042024978906 -2.466795999354471 -28.62138628909004
ltibia 13.843763087075136
lfoot -20.18391576696691 1.322611892470662
ltoes -1.2255254821562627
rfemur -32.826724938067294 2.684272494120784 16.836997806618378
rtibia 27.300048085378847
rfoot -8.19131848185743 -17.240525786061713
rtoes -2.766830350828129
lowerback 9.949489323598073 -1.0170292014786648 -4.700863624392373
upperback 0.47177027412251776 -1.8336908850129343 0.9336845972850226
thorax -4.914768115631823 -0.779250922117369 4.017846111362507
lowerneck -16.27605275064146 -2.577145022620318 -2.640336820700572
upperneck 18.84877252540052 -3.188110616559073 1.4029528802978735
head 8.61296443364741 -1.5359190566750054 0.5001788287679632
lclavicle -9.643561532659998e-16 -8.126742767038116e-16
lhumerus -22.067970719029926 -4.867482830579625 79.7559330827203
lradius 26.43532227823595
lwrist 7.233175414522707
lhand -29.554985166369914 23.118987832281654
lfingers 7.125020000000057
lthumb -2.8874237121079727 53.08595956831906
rclavicle -9.643561532659998e-16 -8.126742767038116e-16
rhumerus -33.987213752205534 -22.377352180206955 -76.57416366892387
rradius 24.000426533197924
rwrist 4.199286683450123
rhand -17.055362561484806 30.3534939668977
rfingers 7.125020000000057
rthumb 9.182290550773844 -6.453842082515568
66
root 0.750259875008571 17.701327129450302 28.798155762654567 -1.2950743762805375 1.1047617544973731 3.748463337806396
lfemur 12.809241294563616 -2.5827112297509767 -28.69057798561134
ltibia 10.0716708296507
lfoot -20.463781540031142 0.36115189715580076
ltoes -4.400364657199775
rfemur -32.196835583505454 5.142129278837034 15.5015848724195
rtibia 15.56744456381945
rfoot -8.137430762725891 -18.57435394168202
rtoes -4.786706008925666
lowerback 9.563408835018334 -1.2552236218177972 -5.235566764191878
upperback 0.38492403247556223 -2.1992328817017137 0.9818399262513586
thorax -4.7766226616340886 -0.9488218857009018 4.387397163659595
lowerneck -16.485386331617043 -2.6060037301900096 -2.667614880883982
upperneck 18.71644528978874 -3.2348244621109346 1.45721369812611
head 8.611893153802681 -1.5485989749042037 0.5173440263715101
lclavicle -1.1352916133817813e-15 -9.450300953455296e-16
lhumerus -20.564990588122352 -5.598148407239832 79.36231172836446
lradius 27.43864506837877
lwrist 7.699177285813212
lhand -29.784569290561222 22.876352167799997
lfingers 7.125020000000056
lthumb -3.1091630246619832 52.83757584144023
rclavicle -1.1352916133817813e-15 -9.450300953455296e-16
rhumerus -35.04288747807524 -23.81553286943147 -75.75335617359313
rradius 22.58298265051465
rwrist 5.346718359084135
rhand -17.11813851489493 30.398489605908985
rfingers 7.125020000000056
rthumb 9.12172621028226 -6.392752554234168
67
root 0.7238803895057798 17.6274959178212 29.831420459579718 -0.9463959123703943 1.5549054940406277 3.7343642197559848
lfemur 15.87843120577131 -3.2538731172187383 -28.42440149108005
ltibia 8.880371275938934
lfoot -19.951204955150132 -0.8960354078370321
ltoes -8.76027348979071
rfemur -31.609778037785105 6.238189828753319 15.287739544631227
rtibia 10.758443217095582
rfoot -7.722612489851793 -17.5031744940881
rtoes -6.015822668423258
lowerback 9.409033109709767 -1.4297096593241951 -5.401183044940183
upperback 0.3349280931468472 -2.440139287591338 1.1255375805480807
thorax -4.714129614075228 -1.063658495999146 4.65318670163929
lowerneck -16.68025343327863 -2.6109691453104276 -2.6745296335951974
upperneck 18.738005491310147 -3.233296255489866 1.4456535622917563
head 8.660427931984948 -1.5475737859488568 0.5124984204118498
lclavicle -1.1548153996650157e-15 -9.601474180349434e-16
lhumerus -19.556980416278524 -5.6256551658654494 79.19500455322935
lradius 28.412700272850294
lwrist 8.07656567273703
lhand -30.24440123161041 21.9432118475855
lfingers 7.125020000000056
lthumb -3.5532098845819107 51.90048868056901
rclavicle -1.1548153996650157e-15 -9.601474180349434e-16
rhumerus -36.12606631649927 -25.578368905635145 -74.4798900870068
rradius 21.275197611936846
rwrist 7.018736140378475
rhand -17.2114992619259 30.385586547065405
rfingers 7.125020000000056
rthumb 9.031657155649434 -6.428270649559768
68
root 0.6933540873047918 17.57098654759986 30.67986457202344 -0.9758668470074278 1.8041010280176382 3.3031881021385314
lfemur 17.87401880582237 -4.320045123536451 -27.85754936728755
ltibia 10.518519721756327
lfoot -18.133283057538048 -2.650059108585771
ltoes -14.140921915738247
rfemur -31.519187328059814 5.966657939668328 16.222821376362916
rtibia 12.067054447344496
rfoot -6.433813495524932 -14.577359911894494
rtoes -5.6606461141274185
lowerback 9.393326115291714 -1.5788390161314436 -5.183563368412374
upperback 0.3176240180396484 -2.6040822487535746 1.3895177144438138
thorax -4.719303330740967 -1.1462732820068333 4.7928556807745055
lowerneck -16.81547144562104 -2.5717966081528885 -2.662966720776055
upperneck 18.86214988635816 -3.149809171056474 1.3004684322162285
head 8.72810205035134 -1.5216102648881797 0.46866135457781727
lclavicle -1.2637442327009851e-15 -1.0444913269834492e-15
lhumerus -19.24426787180472 -5.081123998341994 79.18282216605033
lradius 28.74311648118367
lwrist 8.148773992894904
lhand -30.91417386989115 20.71981110486221
lfingers 7.125020000000056
lthumb -4.199979278379205 50.6735658364059
rclavicle -1.2637442327009851e-15 -1.0444913269834492e-15
rhumerus -37.395940804943116 -27.843102095145493 -72.79194234188084
rradius 19.5356072503009
rwrist 9.18254707905687
rhand -17.316433090230433 30.283423042826833
rfingers 7.125020000000056
rthumb 8.930398003265344 -6.636218285164215
69
root 0.6715867307418855 17.558273786585502 31.676361688001514 -1.2664735223541008 1.9308981425148288 2.4791219999496277
lfemur 18.780671357266808 -5.293395199151683 -26.67520298309139
ltibia 15.699311637708107
lfoot -13.72128122117748 -5.219922742942911
ltoes -18.995567693664235
rfemur -31.116986023316507 5.178740576482216 18.17873524510862
rtibia 17.451703709363954
rfoot -4.286064447293699 -10.86582462824197
rtoes -2.9586192244485536
lowerback 9.482849828794333 -1.6901036332955908 -4.485936269151622
upperback 0.32071725978462856 -2.6602725465812167 1.7946030937424937
thorax -4.739571878217637 -1.1847329497931067 4.843558184806963
lowerneck -16.79059440751933 -2.451345219126644 -2.6187847000141855
upperneck 19.17681428723853 -2.9291295545436906 1.0412943358435558
head 8.824648024351234 -1.448559364211146 0.3943360202454652
lclavicle -1.0374254645219016e-15 -8.692520491456444e-16
lhumerus -19.46883407622841 -3.929797869917576 79.4804944565199
lradius 29.339795594010848
lwrist 8.232760608926972
lhand -31.464609575014396 19.978835941665686
lfingers 7.125020000000057
lthumb -4.731519676018934 49.92851722405719
rclavicle -1.0374254645219016e-15 -8.692520491456444e-16
rhumerus -38.56828725732956 -30.144377956596518 -70.51604390955093
rradius 18.259479794694933
rwrist 11.943384209936209
rhand -17.36631422785782 30.375298817039326
rfingers 7.125020000000057
rthumb 8.882253492432389 -6.766997063949465
70
root 0.6341037444488808 17.5847098563548 32.32991730660549 -1.8043415199737525 1.8752300462369207 1.1888386509259097
lfemur 17.68521777761416 -5.843565388696624 -24.872466088005776
ltibia 23.59032287299752
lfoot -6.568450853676962 -9.074172109074158
ltoes -21.446147658861815
rfemur -30.370668453066635 4.5245350805022095 20.57672447797085
rtibia 23.385930343893317
rfoot -2.6829803793466644 -7.673006204783029
rtoes 1.5736705582049455
lowerback 9.57807103289183 -1.7994537745881716 -3.4723752794538756
upperback 0.3028661349079211 -2.672204098207408 2.2715333086015344
thorax -4.839920434687727 -1.2066519312949286 4.727642461829284
lowerneck -16.646422125725042 -2.29991042439815 -2.5657959977960614
upperneck 19.518207632291617 -2.6603210854242114 0.6819871599530036
head 8.90127443514847 -1.3602727820812053 0.29223884249966814
lclavicle -1.0721726613875173e-15 -8.961569026996588e-16
lhumerus -20.519458302583317 -2.7576938907948896 79.91086190244357
lradius 29.217736560203633
lwrist 7.958587422185598
lhand -31.63692052925201 19.806494060717093
lfingers 7.125020000000057
lthumb -4.897920972184186 49.752389787358986
rclavicle -1.0721726613875173e-15 -8.961569026996588e-16
rhumerus -39.86718660453991 -32.48863459713896 -68.37532065958044
rradius 16.582293103773424
rwrist 14.418178931103753
rhand -17.390374670241002 30.39332965855602
rfingers 7.125020000000057
rthumb 8.859028364092206 -6.957102938612784
